<svg xmlns="http://www.w3.org/2000/svg" xmlns:xlink="http://www.w3.org/1999/xlink" width="446" zoomAndPan="magnify" viewBox="0 0 334.5 172.499995" height="230" preserveAspectRatio="xMidYMid meet" version="1.0"><defs><filter x="0%" y="0%" width="100%" height="100%" id="fr-fade"><feColorMatrix values="0 0 0 0 1 0 0 0 0 1 0 0 0 0 1 0 0 0 1 0" color-interpolation-filters="sRGB"/></filter><g/><mask id="fr-mask"><g filter="url(#fr-fade)"><rect x="-33.45" width="401.4" fill="#000000" y="-17.249999" height="206.999994" fill-opacity="0.7"/></g></mask><clipPath id="fr-clip1"><rect x="0" width="170" y="0" height="37"/></clipPath></defs><g fill="none" stroke="#0084f0" stroke-width="3.4" stroke-linecap="round" stroke-linejoin="round"><path d="M 40.5 63.5 L 68.5 63.5 L 78.5 73.5 L 78.5 88.5"/><path d="M 40.5 63.5 L 40.5 106.5 L 66 106.5"/><path d="M 67.5 63.9 L 67.5 74.5 L 78.1 74.5"/><path d="M 48.5 76.5 L 62.5 76.5"/><path d="M 48.5 85.5 L 58.5 85.5"/><path d="M 48.5 94.5 L 55.5 94.5"/><circle cx="74" cy="95" r="11.5"/><path d="M 82.4 103.4 L 89.5 110.5"/></g><g mask="url(#fr-mask)"><g transform="matrix(1, 0, 0, 1, 103, 54)"><g clip-path="url(#fr-clip1)"><g fill="#7990a1" fill-opacity="1"><g transform="translate(0.610001, 28.633324)"><g><path d="M 6.703125 -17.671875 L 6.703125 -11.296875 L 16.8125 -11.296875 L 16.8125 -8.015625 L 6.703125 -8.015625 L 6.703125 0 L 2.8125 0 L 2.8125 -20.9375 L 18.09375 -20.9375 L 18.09375 -17.671875 Z M 6.703125 -17.671875 "/></g></g></g><g fill="#7990a1" fill-opacity="1"><g transform="translate(21.160418, 28.633324)"><g><path d="M 2.8125 -20.9375 L 6.703125 -20.9375 L 6.703125 0 L 2.8125 0 Z M 2.8125 -20.9375 "/></g></g></g><g fill="#7990a1" fill-opacity="1"><g transform="translate(30.702754, 28.633324)"><g><path d="M 21.40625 -20.9375 L 21.40625 0 L 18.21875 0 L 6.671875 -14.171875 L 6.671875 0 L 2.8125 0 L 2.8125 -20.9375 L 6.015625 -20.9375 L 17.5625 -6.765625 L 17.5625 -20.9375 Z M 21.40625 -20.9375 "/></g></g></g><g fill="#7990a1" fill-opacity="1"><g transform="translate(56.428158, 28.633324)"><g><path d="M 2.8125 -20.9375 L 11.96875 -20.9375 C 14.195312 -20.9375 16.175781 -20.5 17.90625 -19.625 C 19.644531 -18.757812 20.992188 -17.535156 21.953125 -15.953125 C 22.910156 -14.367188 23.390625 -12.539062 23.390625 -10.46875 C 23.390625 -8.394531 22.910156 -6.566406 21.953125 -4.984375 C 20.992188 -3.398438 19.644531 -2.171875 17.90625 -1.296875 C 16.175781 -0.429688 14.195312 0 11.96875 0 L 2.8125 0 Z M 11.78125 -3.296875 C 13.3125 -3.296875 14.660156 -3.585938 15.828125 -4.171875 C 16.992188 -4.753906 17.890625 -5.585938 18.515625 -6.671875 C 19.148438 -7.765625 19.46875 -9.03125 19.46875 -10.46875 C 19.46875 -11.90625 19.148438 -13.164062 18.515625 -14.25 C 17.890625 -15.332031 16.992188 -16.164062 15.828125 -16.75 C 14.660156 -17.34375 13.3125 -17.640625 11.78125 -17.640625 L 6.703125 -17.640625 L 6.703125 -3.296875 Z M 11.78125 -3.296875 "/></g></g></g><g fill="#7990a1" fill-opacity="1"><g transform="translate(82.632174, 28.633324)"><g><path d="M 2.8125 -20.9375 L 6.703125 -20.9375 L 6.703125 0 L 2.8125 0 Z M 2.8125 -20.9375 "/></g></g></g><g fill="#7990a1" fill-opacity="1"><g transform="translate(92.174510, 28.633324)"><g><path d="M 21.40625 -20.9375 L 21.40625 0 L 18.21875 0 L 6.671875 -14.171875 L 6.671875 0 L 2.8125 0 L 2.8125 -20.9375 L 6.015625 -20.9375 L 17.5625 -6.765625 L 17.5625 -20.9375 Z M 21.40625 -20.9375 "/></g></g></g><g fill="#7990a1" fill-opacity="1"><g transform="translate(117.899914, 28.633324)"><g><path d="M 17.109375 -10.703125 L 20.78125 -10.703125 L 20.78125 -2.359375 C 19.707031 -1.503906 18.453125 -0.847656 17.015625 -0.390625 C 15.578125 0.0664062 14.101562 0.296875 12.59375 0.296875 C 10.457031 0.296875 8.53125 -0.164062 6.8125 -1.09375 C 5.101562 -2.019531 3.757812 -3.300781 2.78125 -4.9375 C 1.800781 -6.570312 1.3125 -8.414062 1.3125 -10.46875 C 1.3125 -12.519531 1.800781 -14.363281 2.78125 -16 C 3.757812 -17.632812 5.109375 -18.914062 6.828125 -19.84375 C 8.554688 -20.769531 10.5 -21.234375 12.65625 -21.234375 C 14.40625 -21.234375 16 -20.941406 17.4375 -20.359375 C 18.875 -19.785156 20.078125 -18.941406 21.046875 -17.828125 L 18.609375 -15.4375 C 17.003906 -17.03125 15.078125 -17.828125 12.828125 -17.828125 C 11.347656 -17.828125 10.035156 -17.515625 8.890625 -16.890625 C 7.742188 -16.273438 6.847656 -15.410156 6.203125 -14.296875 C 5.554688 -13.179688 5.234375 -11.90625 5.234375 -10.46875 C 5.234375 -9.070312 5.554688 -7.816406 6.203125 -6.703125 C 6.847656 -5.585938 7.742188 -4.707031 8.890625 -4.0625 C 10.035156 -3.425781 11.335938 -3.109375 12.796875 -3.109375 C 14.429688 -3.109375 15.867188 -3.46875 17.109375 -4.1875 Z M 17.109375 -10.703125 "/></g></g></g><g fill="#7990a1" fill-opacity="1"><g transform="translate(142.488621, 28.633324)"><g><path d="M 9.296875 0.296875 C 7.679688 0.296875 6.117188 0.0664062 4.609375 -0.390625 C 3.109375 -0.847656 1.921875 -1.457031 1.046875 -2.21875 L 2.390625 -5.234375 C 3.242188 -4.554688 4.296875 -4.003906 5.546875 -3.578125 C 6.796875 -3.148438 8.046875 -2.9375 9.296875 -2.9375 C 10.859375 -2.9375 12.019531 -3.179688 12.78125 -3.671875 C 13.550781 -4.171875 13.9375 -4.832031 13.9375 -5.65625 C 13.9375 -6.25 13.722656 -6.738281 13.296875 -7.125 C 12.867188 -7.519531 12.320312 -7.828125 11.65625 -8.046875 C 11 -8.265625 10.101562 -8.515625 8.96875 -8.796875 C 7.375 -9.171875 6.082031 -9.546875 5.09375 -9.921875 C 4.113281 -10.304688 3.269531 -10.898438 2.5625 -11.703125 C 1.851562 -12.515625 1.5 -13.609375 1.5 -14.984375 C 1.5 -16.140625 1.8125 -17.191406 2.4375 -18.140625 C 3.0625 -19.085938 4.003906 -19.835938 5.265625 -20.390625 C 6.535156 -20.953125 8.085938 -21.234375 9.921875 -21.234375 C 11.203125 -21.234375 12.457031 -21.070312 13.6875 -20.75 C 14.925781 -20.4375 15.992188 -19.976562 16.890625 -19.375 L 15.671875 -16.359375 C 14.753906 -16.898438 13.796875 -17.304688 12.796875 -17.578125 C 11.796875 -17.859375 10.832031 -18 9.90625 -18 C 8.363281 -18 7.21875 -17.738281 6.46875 -17.21875 C 5.726562 -16.707031 5.359375 -16.019531 5.359375 -15.15625 C 5.359375 -14.5625 5.570312 -14.070312 6 -13.6875 C 6.425781 -13.3125 6.96875 -13.015625 7.625 -12.796875 C 8.28125 -12.578125 9.175781 -12.328125 10.3125 -12.046875 C 11.875 -11.691406 13.148438 -11.316406 14.140625 -10.921875 C 15.140625 -10.535156 15.992188 -9.941406 16.703125 -9.140625 C 17.410156 -8.347656 17.765625 -7.273438 17.765625 -5.921875 C 17.765625 -4.765625 17.445312 -3.71875 16.8125 -2.78125 C 16.1875 -1.84375 15.234375 -1.09375 13.953125 -0.53125 C 12.679688 0.0195312 11.128906 0.296875 9.296875 0.296875 Z M 9.296875 0.296875 "/></g></g></g></g></g></g><g fill="#7990a1" fill-opacity="1"><g transform="translate(103.610001, 108.816600)"><g><path d="M 16.515625 0 L 12.234375 -6.125 C 12.054688 -6.101562 11.785156 -6.09375 11.421875 -6.09375 L 6.703125 -6.09375 L 6.703125 0 L 2.8125 0 L 2.8125 -20.9375 L 11.421875 -20.9375 C 13.234375 -20.9375 14.8125 -20.632812 16.15625 -20.03125 C 17.507812 -19.4375 18.546875 -18.582031 19.265625 -17.46875 C 19.984375 -16.351562 20.34375 -15.023438 20.34375 -13.484375 C 20.34375 -11.910156 19.957031 -10.554688 19.1875 -9.421875 C 18.414062 -8.285156 17.3125 -7.4375 15.875 -6.875 L 20.6875 0 Z M 16.421875 -13.484375 C 16.421875 -14.816406 15.976562 -15.84375 15.09375 -16.5625 C 14.21875 -17.28125 12.9375 -17.640625 11.25 -17.640625 L 6.703125 -17.640625 L 6.703125 -9.296875 L 11.25 -9.296875 C 12.9375 -9.296875 14.21875 -9.660156 15.09375 -10.390625 C 15.976562 -11.117188 16.421875 -12.148438 16.421875 -13.484375 Z M 16.421875 -13.484375 "/></g></g></g><g fill="#7990a1" fill-opacity="1"><g transform="translate(126.972263, 108.816600)"><g><path d="M 18.515625 -3.265625 L 18.515625 0 L 2.8125 0 L 2.8125 -20.9375 L 18.09375 -20.9375 L 18.09375 -17.671875 L 6.703125 -17.671875 L 6.703125 -12.234375 L 16.8125 -12.234375 L 16.8125 -9.03125 L 6.703125 -9.03125 L 6.703125 -3.265625 Z M 18.515625 -3.265625 "/></g></g></g><g fill="#7990a1" fill-opacity="1"><g transform="translate(148.509813, 108.816600)"><g><path d="M 6.703125 -17.671875 L 6.703125 -11.296875 L 16.8125 -11.296875 L 16.8125 -8.015625 L 6.703125 -8.015625 L 6.703125 0 L 2.8125 0 L 2.8125 -20.9375 L 18.09375 -20.9375 L 18.09375 -17.671875 Z M 6.703125 -17.671875 "/></g></g></g><g fill="#7990a1" fill-opacity="1"><g transform="translate(169.060230, 108.816600)"><g><path d="M 18.515625 -3.265625 L 18.515625 0 L 2.8125 0 L 2.8125 -20.9375 L 18.09375 -20.9375 L 18.09375 -17.671875 L 6.703125 -17.671875 L 6.703125 -12.234375 L 16.8125 -12.234375 L 16.8125 -9.03125 L 6.703125 -9.03125 L 6.703125 -3.265625 Z M 18.515625 -3.265625 "/></g></g></g><g fill="#7990a1" fill-opacity="1"><g transform="translate(190.597780, 108.816600)"><g><path d="M 16.515625 0 L 12.234375 -6.125 C 12.054688 -6.101562 11.785156 -6.09375 11.421875 -6.09375 L 6.703125 -6.09375 L 6.703125 0 L 2.8125 0 L 2.8125 -20.9375 L 11.421875 -20.9375 C 13.234375 -20.9375 14.8125 -20.632812 16.15625 -20.03125 C 17.507812 -19.4375 18.546875 -18.582031 19.265625 -17.46875 C 19.984375 -16.351562 20.34375 -15.023438 20.34375 -13.484375 C 20.34375 -11.910156 19.957031 -10.554688 19.1875 -9.421875 C 18.414062 -8.285156 17.3125 -7.4375 15.875 -6.875 L 20.6875 0 Z M 16.421875 -13.484375 C 16.421875 -14.816406 15.976562 -15.84375 15.09375 -16.5625 C 14.21875 -17.28125 12.9375 -17.640625 11.25 -17.640625 L 6.703125 -17.640625 L 6.703125 -9.296875 L 11.25 -9.296875 C 12.9375 -9.296875 14.21875 -9.660156 15.09375 -10.390625 C 15.976562 -11.117188 16.421875 -12.148438 16.421875 -13.484375 Z M 16.421875 -13.484375 "/></g></g></g><g fill="#7990a1" fill-opacity="1"><g transform="translate(213.960042, 108.816600)"><g><path d="M 18.515625 -3.265625 L 18.515625 0 L 2.8125 0 L 2.8125 -20.9375 L 18.09375 -20.9375 L 18.09375 -17.671875 L 6.703125 -17.671875 L 6.703125 -12.234375 L 16.8125 -12.234375 L 16.8125 -9.03125 L 6.703125 -9.03125 L 6.703125 -3.265625 Z M 18.515625 -3.265625 "/></g></g></g><g fill="#7990a1" fill-opacity="1"><g transform="translate(235.497592, 108.816600)"><g><path d="M 21.40625 -20.9375 L 21.40625 0 L 18.21875 0 L 6.671875 -14.171875 L 6.671875 0 L 2.8125 0 L 2.8125 -20.9375 L 6.015625 -20.9375 L 17.5625 -6.765625 L 17.5625 -20.9375 Z M 21.40625 -20.9375 "/></g></g></g><g fill="#7990a1" fill-opacity="1"><g transform="translate(261.222996, 108.816600)"><g><path d="M 12.5 0.296875 C 10.382812 0.296875 8.472656 -0.164062 6.765625 -1.09375 C 5.066406 -2.019531 3.734375 -3.300781 2.765625 -4.9375 C 1.796875 -6.570312 1.3125 -8.414062 1.3125 -10.46875 C 1.3125 -12.519531 1.800781 -14.363281 2.78125 -16 C 3.757812 -17.632812 5.097656 -18.914062 6.796875 -19.84375 C 8.503906 -20.769531 10.414062 -21.234375 12.53125 -21.234375 C 14.25 -21.234375 15.8125 -20.929688 17.21875 -20.328125 C 18.632812 -19.734375 19.832031 -18.867188 20.8125 -17.734375 L 18.296875 -15.375 C 16.785156 -17.007812 14.921875 -17.828125 12.703125 -17.828125 C 11.273438 -17.828125 9.988281 -17.507812 8.84375 -16.875 C 7.707031 -16.25 6.820312 -15.378906 6.1875 -14.265625 C 5.550781 -13.148438 5.234375 -11.882812 5.234375 -10.46875 C 5.234375 -9.050781 5.550781 -7.785156 6.1875 -6.671875 C 6.820312 -5.554688 7.707031 -4.679688 8.84375 -4.046875 C 9.988281 -3.421875 11.273438 -3.109375 12.703125 -3.109375 C 14.921875 -3.109375 16.785156 -3.9375 18.296875 -5.59375 L 20.8125 -3.203125 C 19.832031 -2.066406 18.628906 -1.195312 17.203125 -0.59375 C 15.785156 0 14.21875 0.296875 12.5 0.296875 Z M 12.5 0.296875 "/></g></g></g><g fill="#7990a1" fill-opacity="1"><g transform="translate(284.465603, 108.816600)"><g><path d="M 18.515625 -3.265625 L 18.515625 0 L 2.8125 0 L 2.8125 -20.9375 L 18.09375 -20.9375 L 18.09375 -17.671875 L 6.703125 -17.671875 L 6.703125 -12.234375 L 16.8125 -12.234375 L 16.8125 -9.03125 L 6.703125 -9.03125 L 6.703125 -3.265625 Z M 18.515625 -3.265625 "/></g></g></g></svg>